<svg width="512" height="512" viewBox="0 0 512 512" fill="none" xmlns="http://www.w3.org/2000/svg">
<g clip-path="url(#clip0_0_3)">
<circle cx="256" cy="256" r="256" fill="#FF7F50"/>
<path fill-rule="evenodd" clip-rule="evenodd" d="M367.068 158.457C367.068 179.696 349.85 196.914 328.611 196.914C317.976 196.914 308.349 192.597 301.387 185.619L161.312 250.938C162.246 254.066 162.792 257.362 162.896 260.769L259.242 295.836L341.494 325.774C348.345 319.463 357.494 315.608 367.543 315.608C388.782 315.608 406 332.826 406 354.065C406 375.304 388.782 392.522 367.543 392.522C346.304 392.522 329.086 375.304 329.086 354.065C329.086 352.363 329.197 350.687 329.411 349.044L250.35 320.268L154.859 285.512C147.824 294.58 136.822 300.415 124.457 300.415C103.218 300.415 86 283.198 86 261.958C86 240.719 103.218 223.501 124.457 223.501C132.17 223.501 139.353 225.772 145.374 229.682L290.324 162.091C290.212 160.895 290.154 159.682 290.154 158.457C290.154 137.218 307.372 120 328.611 120C349.85 120 367.068 137.218 367.068 158.457Z" fill="#F5F5F5"/>
</g>
<defs>
<clipPath id="clip0_0_3">
<rect width="512" height="512" fill="white"/>
</clipPath>
</defs>
</svg>
