<svg width="512" height="512" viewBox="0 0 512 512" fill="none" xmlns="http://www.w3.org/2000/svg">
<g clip-path="url(#clip0_1_2)">
<path d="M450 0H62C27.7583 0 0 27.7583 0 62V450C0 484.242 27.7583 512 62 512H450C484.242 512 512 484.242 512 450V62C512 27.7583 484.242 0 450 0Z" fill="#FF7F50"/>
<mask id="mask0_1_2" style="mask-type:luminance" maskUnits="userSpaceOnUse" x="107" y="89" width="238" height="238">
<path d="M110.759 326.577L344.855 323.096L341.374 89L107.278 92.4813L110.759 326.577Z" fill="white"/>
</mask>
<g mask="url(#mask0_1_2)">
<path d="M164.081 229.286L277.256 110.946L320.636 154.451L207.644 270.848L164.081 229.286Z" fill="#FFCC75"/>
<path d="M141.361 252.079C148.236 244.589 159.845 243.99 167.454 250.733L183.497 264.954C192.21 272.676 191.787 286.409 182.615 293.581C175.532 299.12 165.503 298.811 158.775 292.846L142.731 278.627C134.934 271.716 134.317 259.755 141.361 252.079Z" fill="#F2484B"/>
<path d="M163.582 228.081L142.193 250.115L186.255 292.886L207.644 270.852L163.582 228.081Z" fill="#082947"/>
<path d="M308.972 100.338L341.374 89.0009L331.005 121.726L312.86 118.376L308.972 100.338Z" fill="#082947"/>
<path d="M320.636 154.451L331.005 121.726L308.972 100.338L276.569 111.675L320.636 154.451Z" fill="#F2EBD9"/>
</g>
<path d="M342.392 324L382.684 165.75C384.999 156.662 393.16 150.303 402.512 150.303H421.391C428.907 150.303 435 144.19 435 136.651C435 129.112 428.907 123 421.391 123H382.185C372.354 123 363.774 129.684 361.342 139.238L359.189 147.696C356.754 157.255 348.166 163.941 338.33 163.934L99.5339 163.763C86.0599 163.753 75.8938 176.029 78.3742 189.313L100.235 306.394C102.141 316.602 111.026 324 121.38 324H342.392ZM320.425 191.224C334.459 191.235 344.725 204.503 341.252 218.142L325.386 280.459C322.953 290.014 314.373 296.698 304.542 296.698H143.974C133.62 296.698 124.736 289.3 122.83 279.092L111.169 216.64C108.688 203.356 118.854 191.079 132.328 191.09L320.425 191.224Z" fill="#F5F5F5"/>
<path d="M305.481 423C329.477 423 349 403.485 349 379.499C349 355.513 329.477 336 305.481 336H141.519C117.523 336 98 355.513 98 379.499C98 403.485 117.523 423 141.519 423C165.516 423 185.038 403.485 185.038 379.499C185.038 373.738 183.909 368.238 181.866 363.201H265.135C263.091 368.238 261.962 373.738 261.962 379.499C261.962 403.485 281.485 423 305.481 423ZM157.824 379.499C157.824 388.487 150.51 395.798 141.519 395.798C132.528 395.798 125.214 388.487 125.214 379.499C125.214 370.513 132.528 363.201 141.519 363.201C150.51 363.201 157.824 370.513 157.824 379.499ZM321.787 379.499C321.787 388.487 314.473 395.798 305.482 395.798C296.491 395.798 289.177 388.487 289.177 379.499C289.177 370.513 296.491 363.201 305.482 363.201C314.473 363.201 321.787 370.513 321.787 379.499Z" fill="#F5F5F5"/>
</g>
<defs>
<clipPath id="clip0_1_2">
<rect width="512" height="512" fill="white"/>
</clipPath>
</defs>
</svg>
