<svg width="512" height="512" viewBox="0 0 512 512" fill="none" xmlns="http://www.w3.org/2000/svg">
<g clip-path="url(#clip0_1_2)">
<circle cx="256" cy="256" r="256" fill="#FF7F50"/>
<path d="M364.149 340L392.364 229.776C393.985 223.446 399.7 219.017 406.249 219.017H419.47C424.733 219.017 429 214.76 429 209.508C429 204.257 424.733 200 419.47 200H392.015C385.13 200 379.122 204.656 377.418 211.31L375.911 217.201C374.206 223.86 368.192 228.516 361.304 228.512L194.08 228.392C184.644 228.385 177.525 236.936 179.262 246.189L194.571 327.737C195.906 334.847 202.127 340 209.378 340H364.149ZM348.765 247.52C358.593 247.527 365.782 256.768 363.35 266.268L352.239 309.673C350.536 316.328 344.528 320.984 337.643 320.984H225.2C217.95 320.984 211.728 315.831 210.393 308.721L202.227 265.222C200.49 255.969 207.61 247.419 217.045 247.426L348.765 247.52Z" fill="#F5F5F5"/>
<path d="M337.658 410C354.389 410 368 396.317 368 379.499C368 362.682 354.389 349 337.658 349H223.342C206.612 349 193 362.682 193 379.499C193 396.317 206.611 410 223.342 410C240.073 410 253.684 396.317 253.684 379.499C253.684 375.46 252.897 371.603 251.472 368.072H309.528C308.103 371.603 307.316 375.46 307.316 379.499C307.316 396.317 320.928 410 337.658 410ZM234.71 379.499C234.71 385.801 229.611 390.927 223.342 390.927C217.073 390.927 211.974 385.801 211.974 379.499C211.974 373.199 217.073 368.072 223.342 368.072C229.611 368.072 234.71 373.199 234.71 379.499ZM349.027 379.499C349.027 385.801 343.927 390.927 337.659 390.927C331.39 390.927 326.291 385.801 326.291 379.499C326.291 373.199 331.39 368.072 337.659 368.072C343.927 368.072 349.027 373.199 349.027 379.499Z" fill="#F5F5F5"/>
<path d="M87 166H193" stroke="#F5F5F5" stroke-width="28" stroke-linecap="round"/>
<path d="M143 219V113" stroke="#F5F5F5" stroke-width="28" stroke-linecap="round"/>
</g>
<defs>
<clipPath id="clip0_1_2">
<rect width="512" height="512" fill="white"/>
</clipPath>
</defs>
</svg>
